<svg width="20" height="21" viewBox="0 0 20 21" fill="none" xmlns="http://www.w3.org/2000/svg">
<path d="M11.5133 17.1142C11.3035 17.1131 11.0976 17.0574 10.9158 16.9525L7.8583 15.1858C7.44632 14.9489 6.97939 14.8242 6.50414 14.8242H3.69914C3.17442 14.8231 2.67153 14.6141 2.30058 14.243C1.92963 13.8719 1.72085 13.3689 1.71997 12.8442V8.15584C1.72107 7.63127 1.92994 7.1285 2.30087 6.75757C2.6718 6.38665 3.17457 6.17777 3.69914 6.17667H6.50414C6.97954 6.17613 7.44648 6.05085 7.8583 5.81334L10.9166 4.04917C11.0985 3.9443 11.3046 3.88905 11.5145 3.88898C11.7244 3.8889 11.9307 3.944 12.1126 4.04875C12.2945 4.15349 12.4456 4.30421 12.5509 4.48579C12.6562 4.66738 12.7119 4.87344 12.7125 5.08334V15.9167C12.714 16.1272 12.6594 16.3343 12.5543 16.5167C12.4491 16.6991 12.2971 16.8501 12.1141 16.9542C11.9312 17.059 11.7241 17.1142 11.5133 17.1142ZM3.69914 7.01001C3.39538 7.01045 3.10419 7.13131 2.8894 7.3461C2.67461 7.56089 2.55374 7.85208 2.5533 8.15584V12.8442C2.55418 13.1479 2.67516 13.4389 2.88983 13.6537C3.1045 13.8686 3.39544 13.9897 3.69914 13.9908H6.50414C7.1258 13.9907 7.73654 14.1543 8.27497 14.465L11.3333 16.23C11.3889 16.2615 11.4518 16.278 11.5157 16.2777C11.5796 16.2774 11.6424 16.2604 11.6977 16.2284C11.7531 16.1964 11.7991 16.1505 11.8312 16.0952C11.8633 16.04 11.8804 15.9773 11.8808 15.9133V5.08334C11.8808 5.01929 11.8639 4.95638 11.8318 4.90093C11.7997 4.84548 11.7537 4.79944 11.6982 4.76744C11.6427 4.73544 11.5798 4.71859 11.5157 4.71861C11.4517 4.71862 11.3888 4.73548 11.3333 4.76751L8.27497 6.53501C7.73662 6.84603 7.12588 7.00985 6.50414 7.01001H3.69914ZM15.3391 5.71834C16.0025 6.32521 16.5326 7.06326 16.8957 7.88571C17.2589 8.70816 17.4473 9.59709 17.449 10.4962C17.4506 11.3952 17.2655 12.2848 16.9053 13.1086C16.5451 13.9324 16.0178 14.6724 15.3566 15.2817C14.9616 15.6458 15.5525 16.2342 15.9458 15.8708C16.6837 15.1838 17.2719 14.3518 17.6735 13.427C18.0751 12.5022 18.2816 11.5044 18.2799 10.4962C18.2783 9.48794 18.0686 8.49087 17.664 7.56738C17.2593 6.64389 16.6684 5.81384 15.9283 5.12917C15.5333 4.76751 14.9416 5.35584 15.3391 5.71834Z" fill="#F5F4F2"/>
<path d="M14.0916 8.02581C14.4361 8.33903 14.7116 8.72062 14.9004 9.14624C15.0891 9.57186 15.1871 10.0322 15.1881 10.4978C15.189 10.9634 15.0929 11.4241 14.9058 11.8505C14.7188 12.2768 14.4449 12.6595 14.1016 12.9741C13.7066 13.3391 14.2966 13.9266 14.6908 13.5633C15.1106 13.1708 15.4451 12.6961 15.6734 12.1687C15.9018 11.6413 16.0192 11.0725 16.0183 10.4978C16.0173 9.92309 15.8981 9.35472 15.668 8.82808C15.4379 8.30144 15.1018 7.8278 14.6808 7.43664C14.2858 7.07498 13.6949 7.66331 14.0916 8.02581Z" fill="#F5F4F2"/>
</svg>
